<svg width="25" height="22" viewBox="0 0 25 22" fill="none" xmlns="http://www.w3.org/2000/svg">
<path d="M5.37573 1.48078C8.24036 3.63137 11.3216 7.99186 12.4529 10.332C13.5842 7.99203 16.6653 3.63132 19.53 1.48078C21.597 -0.0709933 24.946 -1.27167 24.946 2.54895C24.946 3.31197 24.5085 8.95878 24.2519 9.87552C23.3601 13.0627 20.1101 13.8756 17.2192 13.3836C22.2724 14.2437 23.5579 17.0925 20.7817 19.9412C15.5092 25.3516 13.2036 18.5837 12.6125 16.8496C12.5042 16.5317 12.4535 16.3829 12.4528 16.5094C12.452 16.3829 12.4014 16.5317 12.2931 16.8496C11.7023 18.5837 9.39669 25.3518 4.12386 19.9412C1.34762 17.0925 2.63308 14.2435 7.68642 13.3836C4.79543 13.8756 1.5454 13.0627 0.653653 9.87552C0.397061 8.9587 -0.0404053 3.31189 -0.0404053 2.54895C-0.0404053 -1.27167 3.30885 -0.0709933 5.37573 1.48078Z" fill="#163A34"/>
</svg>
