<svg width="20" height="20" viewBox="0 0 20 20" fill="none" xmlns="http://www.w3.org/2000/svg">
<path d="M7.22202 2.09712C6.97794 1.85304 6.58222 1.85304 6.33814 2.09712C6.09406 2.3412 6.09406 2.73693 6.33814 2.98101C6.48353 3.12639 6.48286 3.36114 6.3386 3.5051C5.70557 4.13814 5.70444 5.16552 6.3386 5.79835C6.58293 6.04218 6.97866 6.04176 7.22248 5.79743C7.46631 5.55309 7.46589 5.15737 7.22156 4.91354C7.0773 4.76959 7.07663 4.53484 7.22202 4.38945C7.85572 3.75658 7.8549 2.73 7.22202 2.09712Z" fill="#163A34"/>
<path d="M15.4614 4.90585C15.7055 4.66177 15.7055 4.26604 15.4614 4.02196C15.2173 3.77789 14.8216 3.77789 14.5775 4.02196C13.9445 4.65499 13.9438 5.68192 14.578 6.31475C14.8223 6.55858 15.218 6.55816 15.4619 6.31383C15.7057 6.0695 15.7053 5.67377 15.461 5.42994C15.3167 5.28599 15.316 5.05124 15.4614 4.90585Z" fill="#163A34"/>
<path d="M3.5031 5.43045C3.25902 5.18638 2.86329 5.18638 2.61921 5.43045C2.37514 5.67454 2.37514 6.07026 2.61921 6.31435C2.7646 6.45973 2.76394 6.69448 2.61967 6.83844C2.37535 7.08226 2.37493 7.47799 2.61876 7.72232C2.86258 7.96665 3.25831 7.96707 3.50264 7.72325C4.13679 7.09041 4.13613 6.06349 3.5031 5.43045Z" fill="#163A34"/>
<path fill-rule="evenodd" clip-rule="evenodd" d="M9.99964 5.2183C9.04497 5.2183 8.27277 5.99251 8.27277 6.946V7.51385C5.11684 8.18297 2.74769 10.6429 2.92594 13.6089C2.93916 13.8289 3.12144 14.0006 3.34185 14.0006H16.6582C16.8786 14.0006 17.061 13.8289 17.0741 13.6089C17.2516 10.6427 14.8822 8.18273 11.7266 7.51375V6.946C11.7266 5.99221 10.9532 5.2183 9.99964 5.2183ZM10.4766 7.34741V6.946C10.4766 6.68197 10.2623 6.4683 9.99964 6.4683C9.73655 6.4683 9.5228 6.68167 9.5228 6.946V7.34744C9.68064 7.33851 9.8398 7.33397 10.0001 7.33397C10.16 7.33397 10.3189 7.3385 10.4766 7.34741Z" fill="#163A34"/>
<path d="M2.33159 15.0699C2.49993 14.9347 2.70614 14.8824 2.91652 14.8824H17.0831C17.2936 14.8824 17.4997 14.9347 17.6681 15.0699C17.8367 15.2052 17.9215 15.3868 17.9584 15.5584C18.0272 15.8786 17.9476 16.2422 17.8518 16.5301C17.5834 17.3352 16.8289 17.879 15.98 17.879H4.01974C3.17077 17.879 2.41634 17.3354 2.14797 16.5302C2.05214 16.2423 1.97244 15.8786 2.04128 15.5584C2.07817 15.3868 2.16298 15.2052 2.33159 15.0699Z" fill="#163A34"/>
</svg>
