<svg width="20" height="20" viewBox="0 0 20 20" fill="none" xmlns="http://www.w3.org/2000/svg">
<path fill-rule="evenodd" clip-rule="evenodd" d="M3.33537 8.81792C3.33537 5.58377 5.96703 2.95294 9.20117 2.95294C12.4345 2.95294 15.0662 5.58377 15.0662 8.81792C15.0662 12.0521 12.4345 14.6838 9.20117 14.6838C5.96703 14.6838 3.33537 12.0521 3.33537 8.81792ZM18.7478 17.5338L14.9153 13.7113C16.0453 12.3938 16.7328 10.6863 16.7328 8.81792C16.7328 4.66544 13.3537 1.28627 9.20117 1.28627C5.04787 1.28627 1.6687 4.66544 1.6687 8.81792C1.6687 12.9713 5.04787 16.3504 9.20117 16.3504C10.8862 16.3504 12.4387 15.7871 13.6945 14.8479L17.5712 18.7138L18.7478 17.5338Z" fill="#163A34"/>
</svg>
