<svg width="21" height="22" viewBox="0 0 21 22" fill="none" xmlns="http://www.w3.org/2000/svg">
<path d="M20.1556 9.02344H20.1127C18.1361 9.02344 16.3314 8.42188 14.8705 7.34766V15.0391C14.8705 18.9062 11.7338 22 7.86658 22C3.99939 22 0.90564 18.9062 0.90564 15.0391C0.90564 11.1719 3.99939 8.03516 7.86658 8.03516C8.21033 8.03516 8.51111 8.07812 8.85486 8.12109V11.9883C8.51111 11.8594 8.21033 11.8164 7.86658 11.8164C6.10486 11.8164 4.64392 13.2773 4.64392 15.0391C4.64392 16.8008 6.10486 18.2617 7.86658 18.2617C9.6283 18.2617 11.0892 16.8008 11.0892 15.0391V0H14.8705C14.8705 0.0429688 14.8705 0.0429688 14.8705 0.0859375C14.8705 0.386719 14.8705 0.6875 14.9564 0.988281C15.2142 2.40625 16.0736 3.65234 17.2767 4.42578C18.0931 4.98438 19.0814 5.28516 20.1127 5.28516C20.1127 5.28516 20.1127 5.28516 20.1556 5.28516V9.02344Z" fill="#163A34"/>
</svg>
