<svg width="20" height="20" viewBox="0 0 20 20" fill="none" xmlns="http://www.w3.org/2000/svg">
<path fill-rule="evenodd" clip-rule="evenodd" d="M12.8013 13.0877C12.6846 13.2877 12.4763 13.396 12.268 13.396C12.1596 13.396 12.043 13.3627 11.943 13.3043L9.66796 11.9377C9.47629 11.8293 9.35963 11.621 9.35963 11.4043V8.46266C9.35963 8.11263 9.64296 7.83763 9.98463 7.83763C10.3263 7.83763 10.6096 8.11263 10.6096 8.46266V11.046L12.5846 12.2377C12.8846 12.4127 12.9846 12.796 12.8013 13.0877ZM10.1263 4.19596C6.45965 4.19596 3.47632 7.17929 3.47632 10.846C3.47632 14.5127 6.45965 17.496 10.1263 17.496C13.793 17.496 16.7763 14.5127 16.7763 10.846C16.7763 7.17929 13.793 4.19596 10.1263 4.19596Z" fill="#163A34"/>
<path fill-rule="evenodd" clip-rule="evenodd" d="M5.66371 3.66871C5.95787 3.48704 6.04871 3.10204 5.86704 2.80871C5.68454 2.51454 5.29954 2.42371 5.00704 2.60538C3.86287 3.31121 2.86287 4.26371 2.11537 5.35954C1.92121 5.64454 1.99454 6.03371 2.27954 6.22788C2.38704 6.30204 2.50954 6.33704 2.63121 6.33704C2.83121 6.33704 3.02704 6.24121 3.14787 6.06454C3.79787 5.11204 4.66787 4.28371 5.66371 3.66871Z" fill="#163A34"/>
<path fill-rule="evenodd" clip-rule="evenodd" d="M18.1483 5.35997C17.3933 4.25163 16.3899 3.2958 15.2474 2.5958C14.9533 2.4158 14.5683 2.50747 14.3874 2.80163C14.2074 3.09663 14.2991 3.4808 14.5933 3.66163C15.5874 4.26997 16.4591 5.1008 17.1158 6.06413C17.2366 6.24163 17.4324 6.33663 17.6324 6.33663C17.7533 6.33663 17.8758 6.30163 17.9841 6.2283C18.2691 6.03413 18.3424 5.64497 18.1483 5.35997Z" fill="#163A34"/>
</svg>
