<svg width="20" height="20" viewBox="0 0 20 20" fill="none" xmlns="http://www.w3.org/2000/svg">
<path fill-rule="evenodd" clip-rule="evenodd" d="M9.76021 10.595C11.8402 10.595 13.5202 8.91496 13.5202 6.835C13.6002 4.755 11.9202 3.075 9.76021 3.075C7.68024 3.075 6.00024 4.755 6.00024 6.835C6.00024 8.91496 7.68024 10.595 9.76021 10.595Z" fill="#163A34"/>
<path fill-rule="evenodd" clip-rule="evenodd" d="M15.2803 15.6362C15.0403 14.7562 14.5603 13.9562 13.6003 13.3162C12.8003 12.7562 11.5203 12.3562 9.76031 12.3562C6.32035 12.3562 4.64035 13.9562 4.16035 15.6362C4.00035 16.1162 4.24035 16.5962 4.64035 16.8362C6.08035 17.7962 7.84035 18.2762 9.76031 18.2762C11.6003 18.2762 13.3603 17.7162 14.8003 16.8362C15.2003 16.5962 15.4403 16.1162 15.2803 15.6362Z" fill="#163A34"/>
</svg>
